<?xml version="1.0" encoding="UTF-8" standalone="no"?><!DOCTYPE svg PUBLIC "-//W3C//DTD SVG 1.1//EN" "http://www.w3.org/Graphics/SVG/1.1/DTD/svg11.dtd"><svg width="100%" height="100%" viewBox="0 0 86 93" version="1.1" xmlns="http://www.w3.org/2000/svg" xmlns:xlink="http://www.w3.org/1999/xlink" xml:space="preserve" xmlns:serif="http://www.serif.com/" style="fill-rule:evenodd;clip-rule:evenodd;stroke-linejoin:round;stroke-miterlimit:2;"><g><path d="M49.138,0l6.239,6.605c-0.472,2.71 0.23,5.142 2.046,6.209c2.679,1.573 6.773,-0.418 9.138,-4.444c0.383,-0.653 0.698,-1.32 0.944,-1.986c0.43,0.606 1.044,1.091 1.771,1.389c-0.491,2.159 0.284,4.434 2.134,5.677c2.443,1.64 5.842,0.865 7.585,-1.731c0.029,-0.043 0.057,-0.086 0.085,-0.129c1.028,0.402 2.154,0.623 3.333,0.623c1.037,0 2.032,-0.171 2.956,-0.485l-0,62.547c-0.626,-0.413 -1.23,-0.565 -1.765,-0.398c-1.928,0.6 -2.239,5.117 -0.694,10.079c0.407,1.305 0.902,2.513 1.445,3.572c-1.814,-0.823 -3.634,-0.795 -4.749,0.255c-1.155,1.087 -1.262,2.994 -0.463,4.922l-75.177,0c1.255,-3.662 1.23,-6.652 -0.338,-7.658c-0.897,-0.576 -2.174,-0.421 -3.628,0.316l0,-56.038l7.876,-15.472l1.084,-0.747l-0.405,-0.587l6.373,-12.519l34.21,-0Zm-44.172,10.043l1.167,1.69l-6.133,12.047l0,-11.874l4.966,-1.863Zm-0.604,-0.877l-4.362,1.636l0,-7.959l4.362,6.323Zm2.569,0.999l-6.931,-10.049l0,-0.116l12.106,-0l-5.175,10.165Zm44.256,-10.165l7.771,-0c-0.78,0.739 -1.5,1.637 -2.105,2.669c-0.432,0.735 -0.776,1.487 -1.034,2.235l-4.632,-4.904Zm16.401,-0l6.993,-0c-0.293,0.542 -0.526,1.119 -0.689,1.722c-0.747,-0.696 -1.786,-1.127 -2.935,-1.127c-1.114,-0 -2.125,0.405 -2.865,1.064c-0.094,-0.603 -0.262,-1.162 -0.504,-1.659Z" style="fill:#fff;fill-opacity:0.78;"/><path d="M34.734,83.212c0,-0.18 -0.074,-0.325 -0.164,-0.325l-23.416,-0c-0.091,-0 -0.164,0.145 -0.164,0.325l-0,0.651c-0,0.179 0.073,0.325 0.164,0.325l23.416,-0c0.09,-0 0.164,-0.146 0.164,-0.325l0,-0.651Z" style="fill:#fff;fill-opacity:0.78;"/><path d="M73.508,83.212c-0,-0.18 -0.074,-0.325 -0.164,-0.325l-23.416,-0c-0.091,-0 -0.164,0.145 -0.164,0.325l-0,0.651c-0,0.179 0.073,0.325 0.164,0.325l23.416,-0c0.09,-0 0.164,-0.146 0.164,-0.325l-0,-0.651Z" style="fill:#fff;fill-opacity:0.78;"/><path d="M34.734,78.806c0,-0.179 -0.074,-0.325 -0.164,-0.325l-23.416,0c-0.091,0 -0.164,0.146 -0.164,0.325l-0,0.651c-0,0.179 0.073,0.325 0.164,0.325l23.416,0c0.09,0 0.164,-0.146 0.164,-0.325l0,-0.651Z" style="fill:#fff;fill-opacity:0.78;"/><path d="M73.508,78.806c-0,-0.179 -0.074,-0.325 -0.164,-0.325l-23.416,0c-0.091,0 -0.164,0.146 -0.164,0.325l-0,0.651c-0,0.179 0.073,0.325 0.164,0.325l23.416,0c0.09,0 0.164,-0.146 0.164,-0.325l-0,-0.651Z" style="fill:#fff;fill-opacity:0.78;"/><path d="M34.734,74.092c0,-0.18 -0.074,-0.325 -0.164,-0.325l-23.416,-0c-0.091,-0 -0.164,0.145 -0.164,0.325l-0,0.651c-0,0.179 0.073,0.325 0.164,0.325l23.416,-0c0.09,-0 0.164,-0.146 0.164,-0.325l0,-0.651Z" style="fill:#fff;fill-opacity:0.78;"/><path d="M73.508,74.092c-0,-0.18 -0.074,-0.325 -0.164,-0.325l-23.416,-0c-0.091,-0 -0.164,0.145 -0.164,0.325l-0,0.651c-0,0.179 0.073,0.325 0.164,0.325l23.416,-0c0.09,-0 0.164,-0.146 0.164,-0.325l-0,-0.651Z" style="fill:#fff;fill-opacity:0.78;"/><path d="M34.734,69.686c0,-0.179 -0.074,-0.325 -0.164,-0.325l-23.416,0c-0.091,0 -0.164,0.146 -0.164,0.325l-0,0.651c-0,0.179 0.073,0.325 0.164,0.325l23.416,0c0.09,0 0.164,-0.146 0.164,-0.325l0,-0.651Z" style="fill:#fff;fill-opacity:0.78;"/><path d="M73.508,69.686c-0,-0.179 -0.074,-0.325 -0.164,-0.325l-23.416,0c-0.091,0 -0.164,0.146 -0.164,0.325l-0,0.651c-0,0.179 0.073,0.325 0.164,0.325l23.416,0c0.09,0 0.164,-0.146 0.164,-0.325l-0,-0.651Z" style="fill:#fff;fill-opacity:0.78;"/><path d="M34.734,64.972c0,-0.18 -0.074,-0.325 -0.164,-0.325l-23.416,-0c-0.091,-0 -0.164,0.145 -0.164,0.325l-0,0.651c-0,0.179 0.073,0.325 0.164,0.325l23.416,-0c0.09,-0 0.164,-0.146 0.164,-0.325l0,-0.651Z" style="fill:#fff;fill-opacity:0.78;"/><path d="M73.508,64.972c-0,-0.18 -0.074,-0.325 -0.164,-0.325l-23.416,-0c-0.091,-0 -0.164,0.145 -0.164,0.325l-0,0.651c-0,0.179 0.073,0.325 0.164,0.325l23.416,-0c0.09,-0 0.164,-0.146 0.164,-0.325l-0,-0.651Z" style="fill:#fff;fill-opacity:0.78;"/><path d="M34.734,60.566c0,-0.179 -0.074,-0.325 -0.164,-0.325l-23.416,0c-0.091,0 -0.164,0.146 -0.164,0.325l-0,0.651c-0,0.179 0.073,0.325 0.164,0.325l23.416,0c0.09,0 0.164,-0.146 0.164,-0.325l0,-0.651Z" style="fill:#fff;fill-opacity:0.78;"/><path d="M73.508,60.566c-0,-0.179 -0.074,-0.325 -0.164,-0.325l-23.416,0c-0.091,0 -0.164,0.146 -0.164,0.325l-0,0.651c-0,0.179 0.073,0.325 0.164,0.325l23.416,0c0.09,0 0.164,-0.146 0.164,-0.325l-0,-0.651Z" style="fill:#fff;fill-opacity:0.78;"/><path d="M74.269,42.306c0,-0.18 -0.195,-0.326 -0.435,-0.326l-61.985,0c-0.24,0 -0.436,0.146 -0.436,0.326l0,0.65c0,0.18 0.196,0.326 0.436,0.326l61.985,-0c0.24,-0 0.435,-0.146 0.435,-0.326l0,-0.65Z" style="fill:#fff;fill-opacity:0.78;"/><path d="M74.269,37.9c0,-0.179 -0.195,-0.325 -0.435,-0.325l-61.985,-0c-0.24,-0 -0.436,0.146 -0.436,0.325l0,0.651c0,0.179 0.196,0.325 0.436,0.325l61.985,-0c0.24,-0 0.435,-0.146 0.435,-0.325l0,-0.651Z" style="fill:#fff;fill-opacity:0.78;"/><path d="M74.269,33.426c0,-0.18 -0.195,-0.326 -0.435,-0.326l-61.985,0c-0.24,0 -0.436,0.146 -0.436,0.326l0,0.65c0,0.18 0.196,0.326 0.436,0.326l61.985,-0c0.24,-0 0.435,-0.146 0.435,-0.326l0,-0.65Z" style="fill:#fff;fill-opacity:0.78;"/><path d="M74.269,29.02c0,-0.179 -0.195,-0.325 -0.435,-0.325l-61.985,-0c-0.24,-0 -0.436,0.146 -0.436,0.325l0,0.651c0,0.179 0.196,0.325 0.436,0.325l61.985,-0c0.24,-0 0.435,-0.146 0.435,-0.325l0,-0.651Z" style="fill:#fff;fill-opacity:0.78;"/><path d="M74.269,23.826c0,-0.18 -0.195,-0.326 -0.435,-0.326l-61.985,0c-0.24,0 -0.436,0.146 -0.436,0.326l0,0.65c0,0.18 0.196,0.326 0.436,0.326l61.985,-0c0.24,-0 0.435,-0.146 0.435,-0.326l0,-0.65Z" style="fill:#fff;fill-opacity:0.78;"/><path d="M74.269,19.42c0,-0.179 -0.195,-0.325 -0.435,-0.325l-61.985,-0c-0.24,-0 -0.436,0.146 -0.436,0.325l0,0.651c0,0.179 0.196,0.325 0.436,0.325l61.985,-0c0.24,-0 0.435,-0.146 0.435,-0.325l0,-0.651Z" style="fill:#fff;fill-opacity:0.78;"/><path d="M74.269,23.826c0,-0.18 -0.195,-0.326 -0.435,-0.326l-61.985,0c-0.24,0 -0.436,0.146 -0.436,0.326l0,0.65c0,0.18 0.196,0.326 0.436,0.326l61.985,-0c0.24,-0 0.435,-0.146 0.435,-0.326l0,-0.65Z" style="fill:#f7f7f7;"/><path d="M74.269,19.42c0,-0.179 -0.195,-0.325 -0.435,-0.325l-61.985,-0c-0.24,-0 -0.436,0.146 -0.436,0.325l0,0.651c0,0.179 0.196,0.325 0.436,0.325l61.985,-0c0.24,-0 0.435,-0.146 0.435,-0.325l0,-0.651Z" style="fill:#f7f7f7;"/><path d="M74.269,33.426c0,-0.18 -0.195,-0.326 -0.435,-0.326l-61.985,0c-0.24,0 -0.436,0.146 -0.436,0.326l0,0.65c0,0.18 0.196,0.326 0.436,0.326l61.985,-0c0.24,-0 0.435,-0.146 0.435,-0.326l0,-0.65Z" style="fill:#f7f7f7;"/><path d="M74.269,29.02c0,-0.179 -0.195,-0.325 -0.435,-0.325l-61.985,-0c-0.24,-0 -0.436,0.146 -0.436,0.325l0,0.651c0,0.179 0.196,0.325 0.436,0.325l61.985,-0c0.24,-0 0.435,-0.146 0.435,-0.325l0,-0.651Z" style="fill:#f7f7f7;"/><path d="M74.269,42.306c0,-0.18 -0.195,-0.326 -0.435,-0.326l-61.985,0c-0.24,0 -0.436,0.146 -0.436,0.326l0,0.65c0,0.18 0.196,0.326 0.436,0.326l61.985,-0c0.24,-0 0.435,-0.146 0.435,-0.326l0,-0.65Z" style="fill:#f7f7f7;"/><path d="M74.269,37.9c0,-0.179 -0.195,-0.325 -0.435,-0.325l-61.985,-0c-0.24,-0 -0.436,0.146 -0.436,0.325l0,0.651c0,0.179 0.196,0.325 0.436,0.325l61.985,-0c0.24,-0 0.435,-0.146 0.435,-0.325l0,-0.651Z" style="fill:#f7f7f7;"/><path d="M34.734,64.972c0,-0.18 -0.074,-0.325 -0.164,-0.325l-23.416,-0c-0.091,-0 -0.164,0.145 -0.164,0.325l-0,0.651c-0,0.179 0.073,0.325 0.164,0.325l23.416,-0c0.09,-0 0.164,-0.146 0.164,-0.325l0,-0.651Z" style="fill:#f7f7f7;"/><path d="M34.734,60.566c0,-0.179 -0.074,-0.325 -0.164,-0.325l-23.416,0c-0.091,0 -0.164,0.146 -0.164,0.325l-0,0.651c-0,0.179 0.073,0.325 0.164,0.325l23.416,0c0.09,0 0.164,-0.146 0.164,-0.325l0,-0.651Z" style="fill:#f7f7f7;"/><path d="M73.508,64.972c-0,-0.18 -0.074,-0.325 -0.164,-0.325l-23.416,-0c-0.091,-0 -0.164,0.145 -0.164,0.325l-0,0.651c-0,0.179 0.073,0.325 0.164,0.325l23.416,-0c0.09,-0 0.164,-0.146 0.164,-0.325l-0,-0.651Z" style="fill:#f7f7f7;"/><path d="M73.508,60.566c-0,-0.179 -0.074,-0.325 -0.164,-0.325l-23.416,0c-0.091,0 -0.164,0.146 -0.164,0.325l-0,0.651c-0,0.179 0.073,0.325 0.164,0.325l23.416,0c0.09,0 0.164,-0.146 0.164,-0.325l-0,-0.651Z" style="fill:#f7f7f7;"/><path d="M34.734,74.092c0,-0.18 -0.074,-0.325 -0.164,-0.325l-23.416,-0c-0.091,-0 -0.164,0.145 -0.164,0.325l-0,0.651c-0,0.179 0.073,0.325 0.164,0.325l23.416,-0c0.09,-0 0.164,-0.146 0.164,-0.325l0,-0.651Z" style="fill:#f7f7f7;"/><path d="M34.734,69.686c0,-0.179 -0.074,-0.325 -0.164,-0.325l-23.416,0c-0.091,0 -0.164,0.146 -0.164,0.325l-0,0.651c-0,0.179 0.073,0.325 0.164,0.325l23.416,0c0.09,0 0.164,-0.146 0.164,-0.325l0,-0.651Z" style="fill:#f7f7f7;"/><path d="M73.508,74.092c-0,-0.18 -0.074,-0.325 -0.164,-0.325l-23.416,-0c-0.091,-0 -0.164,0.145 -0.164,0.325l-0,0.651c-0,0.179 0.073,0.325 0.164,0.325l23.416,-0c0.09,-0 0.164,-0.146 0.164,-0.325l-0,-0.651Z" style="fill:#f7f7f7;"/><path d="M73.508,69.686c-0,-0.179 -0.074,-0.325 -0.164,-0.325l-23.416,0c-0.091,0 -0.164,0.146 -0.164,0.325l-0,0.651c-0,0.179 0.073,0.325 0.164,0.325l23.416,0c0.09,0 0.164,-0.146 0.164,-0.325l-0,-0.651Z" style="fill:#f7f7f7;"/><path d="M34.734,83.212c0,-0.18 -0.074,-0.325 -0.164,-0.325l-23.416,-0c-0.091,-0 -0.164,0.145 -0.164,0.325l-0,0.651c-0,0.179 0.073,0.325 0.164,0.325l23.416,-0c0.09,-0 0.164,-0.146 0.164,-0.325l0,-0.651Z" style="fill:#f7f7f7;"/><path d="M34.734,78.806c0,-0.179 -0.074,-0.325 -0.164,-0.325l-23.416,0c-0.091,0 -0.164,0.146 -0.164,0.325l-0,0.651c-0,0.179 0.073,0.325 0.164,0.325l23.416,0c0.09,0 0.164,-0.146 0.164,-0.325l0,-0.651Z" style="fill:#f7f7f7;"/><path d="M73.508,83.212c-0,-0.18 -0.074,-0.325 -0.164,-0.325l-23.416,-0c-0.091,-0 -0.164,0.145 -0.164,0.325l-0,0.651c-0,0.179 0.073,0.325 0.164,0.325l23.416,-0c0.09,-0 0.164,-0.146 0.164,-0.325l-0,-0.651Z" style="fill:#f7f7f7;"/><path d="M73.508,78.806c-0,-0.179 -0.074,-0.325 -0.164,-0.325l-23.416,0c-0.091,0 -0.164,0.146 -0.164,0.325l-0,0.651c-0,0.179 0.073,0.325 0.164,0.325l23.416,0c0.09,0 0.164,-0.146 0.164,-0.325l-0,-0.651Z" style="fill:#f7f7f7;"/></g></svg>