<?xml version="1.0" encoding="UTF-8" standalone="no"?><!DOCTYPE svg PUBLIC "-//W3C//DTD SVG 1.1//EN" "http://www.w3.org/Graphics/SVG/1.1/DTD/svg11.dtd"><svg width="100%" height="100%" viewBox="0 0 86 93" version="1.1" xmlns="http://www.w3.org/2000/svg" xmlns:xlink="http://www.w3.org/1999/xlink" xml:space="preserve" xmlns:serif="http://www.serif.com/" style="fill-rule:evenodd;clip-rule:evenodd;stroke-linejoin:round;stroke-miterlimit:2;"><g><path d="M49.138,0l6.239,6.605c-0.472,2.71 0.23,5.142 2.046,6.209c2.679,1.573 6.773,-0.418 9.138,-4.444c0.383,-0.653 0.698,-1.32 0.944,-1.986c0.43,0.606 1.044,1.091 1.771,1.389c-0.491,2.159 0.284,4.434 2.134,5.677c2.443,1.64 5.842,0.865 7.585,-1.731c0.029,-0.043 0.057,-0.086 0.085,-0.129c1.028,0.402 2.154,0.623 3.333,0.623c1.037,0 2.032,-0.171 2.956,-0.485l-0,62.547c-0.626,-0.413 -1.23,-0.565 -1.765,-0.398c-1.928,0.6 -2.239,5.117 -0.694,10.079c0.407,1.305 0.902,2.513 1.445,3.572c-1.814,-0.823 -3.634,-0.795 -4.749,0.255c-1.155,1.087 -1.262,2.994 -0.463,4.922l-75.177,0c1.255,-3.662 1.23,-6.652 -0.338,-7.658c-0.897,-0.576 -2.174,-0.421 -3.628,0.316l0,-56.038l7.876,-15.472l1.084,-0.747l-0.405,-0.587l6.373,-12.519l34.21,-0Zm-37.984,82.887c-0.091,-0 -0.164,0.145 -0.164,0.325l-0,0.651c-0,0.179 0.073,0.325 0.164,0.325l23.416,-0c0.019,-0 0.037,-0.007 0.054,-0.019c0.064,-0.044 0.11,-0.165 0.11,-0.306l0,-0.651c0,-0.165 -0.063,-0.302 -0.143,-0.323c-0.007,-0.001 -0.014,-0.002 -0.021,-0.002l-23.416,-0Zm62.19,-0l-23.416,-0c-0.091,-0 -0.164,0.145 -0.164,0.325l-0,0.651c-0,0.179 0.073,0.325 0.164,0.325l23.416,-0l0.002,-0c0.031,-0.001 0.061,-0.02 0.086,-0.051c0.046,-0.058 0.076,-0.159 0.076,-0.274l-0,-0.651c-0,-0.178 -0.073,-0.323 -0.162,-0.325l-0.002,-0Zm-38.735,-4.397c-0.013,-0.006 -0.026,-0.009 -0.039,-0.009l-23.416,0c-0.075,0 -0.139,0.1 -0.158,0.237c-0.004,0.028 -0.006,0.058 -0.006,0.088l-0,0.651c-0,0.179 0.073,0.325 0.164,0.325l23.416,0c0.018,0 0.036,-0.006 0.052,-0.017l0.002,-0.001c0.064,-0.045 0.11,-0.165 0.11,-0.307l0,-0.651c0,-0.056 -0.007,-0.109 -0.02,-0.156c-0.004,-0.012 -0.007,-0.024 -0.011,-0.035l-0.002,-0.003c-0.007,-0.018 -0.014,-0.035 -0.023,-0.05l-0.002,-0.003c-0.006,-0.011 -0.013,-0.02 -0.019,-0.029l-0.004,-0.004l-0.003,-0.004l-0.001,-0.001c-0.002,-0.002 -0.004,-0.004 -0.006,-0.006l-0.001,-0.001c-0.005,-0.005 -0.011,-0.009 -0.016,-0.013c-0.003,-0.003 -0.007,-0.005 -0.01,-0.007l-0.003,-0.002l-0.004,-0.002Zm38.814,0.031c-0.024,-0.025 -0.051,-0.04 -0.079,-0.04l-23.416,0c-0.091,0 -0.164,0.146 -0.164,0.325l-0,0.651c-0,0.087 0.017,0.166 0.045,0.224c0.03,0.062 0.072,0.101 0.119,0.101l23.416,0l0.002,0c0.089,-0.002 0.162,-0.147 0.162,-0.325l-0,-0.651c-0,-0.035 -0.003,-0.068 -0.008,-0.1l-0,-0.001c-0.003,-0.018 -0.007,-0.036 -0.012,-0.054c-0.002,-0.008 -0.004,-0.016 -0.007,-0.023c-0.001,-0.002 -0.002,-0.004 -0.002,-0.007c-0.001,-0.001 -0.001,-0.002 -0.001,-0.003c-0.002,-0.004 -0.003,-0.007 -0.004,-0.011c-0.002,-0.003 -0.003,-0.007 -0.005,-0.01c-0.003,-0.008 -0.006,-0.015 -0.01,-0.021c-0.001,-0.004 -0.003,-0.007 -0.005,-0.01l-0.001,-0.003c-0.009,-0.016 -0.019,-0.03 -0.03,-0.042Zm-38.794,-4.732c-0.018,-0.014 -0.038,-0.022 -0.059,-0.022l-23.416,-0c-0.087,-0 -0.159,0.134 -0.164,0.304c-0,0.007 -0,0.014 -0,0.021l-0,0.651c-0,0.179 0.073,0.325 0.164,0.325l23.416,-0c0.018,-0 0.036,-0.006 0.053,-0.018c0.064,-0.043 0.111,-0.165 0.111,-0.307l0,-0.651c0,-0.037 -0.003,-0.073 -0.009,-0.107c-0.002,-0.013 -0.005,-0.025 -0.008,-0.038l-0.002,-0.006c-0.018,-0.067 -0.047,-0.121 -0.083,-0.15l-0.003,-0.002Zm38.778,0.003c-0.02,-0.016 -0.041,-0.025 -0.063,-0.025l-23.416,-0c-0.091,-0 -0.164,0.145 -0.164,0.325l-0,0.651c-0,0.067 0.01,0.129 0.028,0.181l0.001,0.004c0.003,0.008 0.006,0.017 0.01,0.025l0.002,0.005c0.001,0.002 0.002,0.005 0.004,0.008c0.03,0.063 0.072,0.102 0.119,0.102l23.416,-0l0.002,-0c0.089,-0.002 0.162,-0.147 0.162,-0.325l-0,-0.651c-0,-0.056 -0.007,-0.109 -0.02,-0.155c-0.002,-0.007 -0.004,-0.014 -0.006,-0.021c-0.018,-0.055 -0.044,-0.099 -0.075,-0.124Zm-0.063,-4.431l-23.416,0c-0.091,0 -0.164,0.146 -0.164,0.325l-0,0.651c-0,0.087 0.017,0.166 0.045,0.224c0.03,0.062 0.072,0.101 0.119,0.101l23.416,0c0.09,0 0.164,-0.146 0.164,-0.325l-0,-0.651c-0,-0.178 -0.073,-0.323 -0.162,-0.325l-0.002,0Zm-62.19,0c-0.091,0 -0.164,0.146 -0.164,0.325l-0,0.651c-0,0.179 0.073,0.325 0.164,0.325l23.416,0c0.09,0 0.164,-0.146 0.164,-0.325l0,-0.651c0,-0.164 -0.062,-0.3 -0.141,-0.322l-0.002,-0c-0.007,-0.002 -0.014,-0.003 -0.021,-0.003l-23.416,0Zm62.269,-4.674c-0.024,-0.026 -0.051,-0.04 -0.079,-0.04l-23.416,-0c-0.091,-0 -0.164,0.145 -0.164,0.325l-0,0.651c-0,0.07 0.011,0.135 0.03,0.188l0.003,0.007c0.003,0.01 0.007,0.019 0.012,0.028c0.03,0.063 0.072,0.102 0.119,0.102l23.416,-0c0.09,-0 0.164,-0.146 0.164,-0.325l-0,-0.651c-0,-0.11 -0.028,-0.207 -0.07,-0.266c-0.001,-0.001 -0.002,-0.003 -0.003,-0.004l-0.001,-0.002c-0.004,-0.004 -0.007,-0.009 -0.011,-0.013Zm-38.82,-0.034c-0.011,-0.004 -0.022,-0.006 -0.033,-0.006l-23.416,-0c-0.069,-0 -0.128,0.083 -0.152,0.202c-0.008,0.038 -0.012,0.08 -0.012,0.123l-0,0.651c-0,0.179 0.073,0.325 0.164,0.325l23.416,-0c0.09,-0 0.164,-0.146 0.164,-0.325l0,-0.651c0,-0.11 -0.028,-0.208 -0.07,-0.267c-0.004,-0.005 -0.009,-0.011 -0.013,-0.016l-0.002,-0.002c-0.001,-0.001 -0.002,-0.002 -0.003,-0.003l-0.002,-0.002c-0,-0.001 -0.001,-0.001 -0.002,-0.002c-0.003,-0.003 -0.006,-0.006 -0.009,-0.008l-0.003,-0.003c-0.009,-0.007 -0.018,-0.012 -0.027,-0.016Zm-23.449,-4.412c-0.091,0 -0.164,0.146 -0.164,0.325l-0,0.651c-0,0.179 0.073,0.325 0.164,0.325l23.416,0c0.018,0 0.036,-0.006 0.052,-0.017l0.002,-0.001c0.064,-0.045 0.11,-0.165 0.11,-0.307l0,-0.651c0,-0.164 -0.062,-0.3 -0.141,-0.322l-0.002,-0c-0.007,-0.002 -0.014,-0.003 -0.021,-0.003l-23.416,0Zm62.19,0l-23.416,0c-0.091,0 -0.164,0.146 -0.164,0.325l-0,0.651c-0,0.179 0.073,0.325 0.164,0.325l23.416,0l0.002,0c0.031,-0.001 0.061,-0.019 0.086,-0.051c0.046,-0.058 0.076,-0.159 0.076,-0.274l-0,-0.651c-0,-0.178 -0.073,-0.323 -0.162,-0.325l-0.002,0Zm0.49,-18.261l-61.985,0c-0.24,0 -0.436,0.146 -0.436,0.326l0,0.65c0,0.18 0.196,0.326 0.436,0.326l61.985,-0l0.006,-0.001c0.086,-0 0.166,-0.02 0.233,-0.053c0.118,-0.058 0.196,-0.158 0.196,-0.272l0,-0.65c0,-0.055 -0.018,-0.106 -0.049,-0.151l-0.003,-0.003c-0.002,-0.004 -0.005,-0.008 -0.008,-0.012c-0.016,-0.019 -0.033,-0.037 -0.054,-0.054l-0.006,-0.005l-0.003,-0.002c-0.007,-0.006 -0.015,-0.011 -0.023,-0.017c-0.006,-0.003 -0.011,-0.006 -0.016,-0.01l-0.004,-0.002c-0.012,-0.007 -0.024,-0.014 -0.037,-0.019c-0.066,-0.032 -0.143,-0.05 -0.226,-0.051l-0.006,0Zm-0,-4.405l-61.985,-0c-0.24,-0 -0.436,0.146 -0.436,0.325l0,0.651c0,0.179 0.196,0.325 0.436,0.325l61.985,-0l0.006,-0c0.061,-0.001 0.12,-0.011 0.173,-0.029c0.151,-0.051 0.256,-0.165 0.256,-0.296l0,-0.651c0,-0.178 -0.192,-0.323 -0.429,-0.325l-0.006,-0Zm-0,-4.475l-61.985,0c-0.24,0 -0.436,0.146 -0.436,0.326l0,0.65c0,0.18 0.196,0.326 0.436,0.326l61.985,-0l0.006,-0.001c0.086,-0 0.166,-0.02 0.233,-0.053l0.004,-0.002c0.116,-0.059 0.192,-0.158 0.192,-0.27l0,-0.65c0,-0.178 -0.192,-0.323 -0.429,-0.326l-0.006,0Zm0.006,-3.104c0.237,-0.002 0.429,-0.147 0.429,-0.325l0,-0.651c0,-0.179 -0.195,-0.325 -0.435,-0.325l-61.985,-0c-0.24,-0 -0.436,0.146 -0.436,0.325l0,0.651c0,0.179 0.196,0.325 0.436,0.325l61.985,-0l0.006,-0Zm-0.006,-6.496l-61.985,0c-0.24,0 -0.436,0.146 -0.436,0.326l0,0.65c0,0.18 0.196,0.326 0.436,0.326l61.985,-0l0.006,-0.001c0.086,-0 0.166,-0.02 0.233,-0.053l0.004,-0.002c0.116,-0.059 0.192,-0.158 0.192,-0.27l0,-0.65c0,-0.178 -0.192,-0.323 -0.429,-0.326l-0.006,0Zm-68.868,-13.457l1.167,1.69l-6.133,12.047l0,-11.874l4.966,-1.863Zm68.874,10.353c0.237,-0.002 0.429,-0.147 0.429,-0.325l0,-0.651c0,-0.179 -0.195,-0.325 -0.435,-0.325l-61.985,-0c-0.24,-0 -0.436,0.146 -0.436,0.325l0,0.651c0,0.179 0.196,0.325 0.436,0.325l61.985,-0l0.006,-0Zm-69.478,-11.23l-4.362,1.636l0,-7.959l4.362,6.323Zm2.569,0.999l-6.931,-10.049l0,-0.116l12.106,0l-5.175,10.165Zm44.256,-10.165l7.771,0c-0.78,0.739 -1.5,1.637 -2.105,2.669c-0.432,0.735 -0.776,1.487 -1.034,2.235l-4.632,-4.904Zm16.401,0l6.993,0c-0.293,0.542 -0.526,1.119 -0.689,1.722c-0.747,-0.696 -1.786,-1.127 -2.935,-1.127c-1.114,-0 -2.125,0.405 -2.865,1.064c-0.094,-0.603 -0.262,-1.162 -0.504,-1.659Z" style="fill:#fff;fill-opacity:0.67;"/></g></svg>