<?xml version="1.0" encoding="UTF-8" standalone="no"?><!DOCTYPE svg PUBLIC "-//W3C//DTD SVG 1.1//EN" "http://www.w3.org/Graphics/SVG/1.1/DTD/svg11.dtd"><svg width="100%" height="100%" viewBox="0 0 97 59" version="1.1" xmlns="http://www.w3.org/2000/svg" xmlns:xlink="http://www.w3.org/1999/xlink" xml:space="preserve" xmlns:serif="http://www.serif.com/" style="fill-rule:evenodd;clip-rule:evenodd;stroke-linejoin:round;stroke-miterlimit:2;"><g><path d="M82.284,26.257l10.276,9.249c3.596,3.237 4.827,8.248 3.118,12.704c-1.708,4.455 -6.019,7.479 -10.929,7.668c-18.233,0.699 -42.347,1.623 -64.365,2.467c-8.415,0.323 -16.102,-4.586 -19.099,-12.195c-2.997,-7.61 -0.634,-16.22 5.871,-21.391c9.396,-7.47 18.589,-14.778 25.689,-20.423c7.626,-6.063 18.716,-5.733 25.943,0.772l17.397,15.659l-1.991,6.779l-0.643,0.206l0.314,0.915l-1.335,4.546l0.632,0.174l1.365,-4.646l7.757,-2.484Zm-1.022,17.309c1.299,-0.001 2.354,0.902 2.354,2.015c0.001,1.113 -1.054,2.018 -2.353,2.018c-1.299,0.001 -2.354,-0.902 -2.354,-2.016c-0.001,-1.113 1.054,-2.017 2.353,-2.017Zm-6.668,-1.135c1.299,-0.001 2.354,0.902 2.354,2.015c0.001,1.114 -1.053,2.018 -2.352,2.018c-1.299,0.001 -2.354,-0.902 -2.355,-2.016c-0,-1.113 1.054,-2.017 2.353,-2.017Zm2.911,-6.489c1.299,-0.001 2.354,0.902 2.354,2.015c0.001,1.113 -1.054,2.018 -2.353,2.018c-1.299,0.001 -2.354,-0.903 -2.354,-2.016c-0.001,-1.113 1.054,-2.017 2.353,-2.017Zm-29.578,-10.605c1.905,-0.001 3.452,1.365 3.453,3.048c0.001,1.683 -1.545,3.051 -3.45,3.051c-1.905,0.001 -3.452,-1.365 -3.453,-3.048c-0.001,-1.683 1.545,-3.05 3.45,-3.051Zm33.29,-0.041l-6.268,2.008l1.777,-6.05l4.491,4.042Zm-23.606,-7.128c1.299,-0 2.354,0.903 2.354,2.016c0.001,1.113 -1.054,2.017 -2.353,2.018c-1.299,0 -2.354,-0.903 -2.354,-2.016c-0.001,-1.113 1.054,-2.017 2.353,-2.018Zm-11.305,-2.889c1.904,-0 3.452,1.365 3.452,3.049c0.001,1.683 -1.545,3.05 -3.45,3.051c-1.905,0.001 -3.452,-1.365 -3.452,-3.048c-0.001,-1.684 1.545,-3.051 3.45,-3.052Zm4.212,-4.153c1.211,-0 2.194,0.79 2.194,1.765c0.001,0.974 -0.982,1.766 -2.192,1.767c-1.211,0 -2.194,-0.791 -2.195,-1.765c0,-0.975 0.983,-1.766 2.193,-1.767Z" style="fill:#fff;fill-opacity:0.68;"/></g></svg>