<?xml version="1.0" encoding="UTF-8" standalone="no"?><!DOCTYPE svg PUBLIC "-//W3C//DTD SVG 1.1//EN" "http://www.w3.org/Graphics/SVG/1.1/DTD/svg11.dtd"><svg width="100%" height="100%" viewBox="0 0 80 79" version="1.1" xmlns="http://www.w3.org/2000/svg" xmlns:xlink="http://www.w3.org/1999/xlink" xml:space="preserve" xmlns:serif="http://www.serif.com/" style="fill-rule:evenodd;clip-rule:evenodd;stroke-linejoin:round;stroke-miterlimit:2;"><g><path d="M0.225,25.125c1.355,-4.844 8.441,-7.103 15.814,-5.042c7.373,2.061 12.26,7.668 10.905,12.512c-1.354,4.844 -8.44,7.104 -15.813,5.042c-7.373,-2.061 -12.26,-7.668 -10.906,-12.512Zm3.243,0.907c0.939,-3.358 6.234,-4.816 11.818,-3.255c5.583,1.561 9.354,5.554 8.415,8.912c-0.938,3.357 -6.233,4.815 -11.817,3.254c-5.583,-1.561 -9.354,-5.554 -8.416,-8.911Z" style="fill:#fff;fill-opacity:0.71;"/><path d="M25.125,0.225c-4.844,1.355 -7.103,8.441 -5.042,15.814c2.061,7.373 7.668,12.26 12.512,10.905c4.844,-1.354 7.104,-8.44 5.042,-15.813c-2.061,-7.373 -7.668,-12.26 -12.512,-10.906Zm0.907,3.243c-3.358,0.939 -4.816,6.234 -3.255,11.818c1.561,5.583 5.554,9.354 8.912,8.415c3.357,-0.938 4.815,-6.233 3.254,-11.817c-1.561,-5.583 -5.554,-9.354 -8.911,-8.416Z" style="fill:#fff;fill-opacity:0.71;"/><path d="M25.22,31.724c0.981,-3.423 13.834,-2.747 28.683,1.509c14.85,4.255 26.11,10.489 25.129,13.911l-53.812,-15.42Z" style="fill:#fff;fill-opacity:0.71;"/><path d="M31.592,25.015c-3.423,0.981 -2.746,13.834 1.509,28.683c4.255,14.85 10.489,26.11 13.911,25.129l-15.42,-53.812Z" style="fill:#fff;fill-opacity:0.71;"/></g></svg>