<?xml version="1.0" encoding="UTF-8" standalone="no"?><!DOCTYPE svg PUBLIC "-//W3C//DTD SVG 1.1//EN" "http://www.w3.org/Graphics/SVG/1.1/DTD/svg11.dtd"><svg width="100%" height="100%" viewBox="0 0 53 53" version="1.1" xmlns="http://www.w3.org/2000/svg" xmlns:xlink="http://www.w3.org/1999/xlink" xml:space="preserve" xmlns:serif="http://www.serif.com/" style="fill-rule:evenodd;clip-rule:evenodd;stroke-linejoin:round;stroke-miterlimit:2;"><g><path d="M5.149,27.545l18.245,-9.614l-23.394,-10.356l5.149,19.97Z" style="fill:#fff;fill-opacity:0.66;"/><path d="M35.002,11.388c-0.629,-0.362 -1.288,-0.687 -1.976,-0.969c-2.376,-0.974 -4.853,-1.343 -7.269,-1.18l-0.623,-0.895l-1.778,1.236c-3.141,0.682 -6.076,2.268 -8.42,4.589l-8.77,-3.595c6.997,-9.309 19.391,-13.202 30.364,-8.704c13.111,5.374 19.259,20.706 13.721,34.216c-5.537,13.51 -20.678,20.114 -33.789,14.74c-4.213,-1.727 -7.707,-4.482 -10.326,-7.874l7.553,-5.251c1.648,1.957 3.766,3.547 6.277,4.577c0.918,0.376 1.85,0.661 2.788,0.861l-0.036,2.85l2.476,0.031l0.033,-2.551c6.99,0.39 13.851,-3.765 16.728,-10.784c0.447,-1.091 0.778,-2.2 0.996,-3.313l4.006,1.588l0.913,-2.302l-4.61,-1.828c0.272,-5.695 -2.268,-11.19 -6.824,-14.509l0.77,-1.878l-1.556,-0.638l-0.648,1.583Zm-33.574,13.436l-0.676,0.47c0.014,-0.241 0.032,-0.483 0.053,-0.726l0.623,0.256Z" style="fill:#fff;fill-opacity:0.66;"/></g></svg>